<?xml version="1.0" encoding="utf-8"?>
<!-- Generator: Adobe Illustrator 16.0.0, SVG Export Plug-In . SVG Version: 6.00 Build 0)  -->
<!DOCTYPE svg PUBLIC "-//W3C//DTD SVG 1.1//EN" "http://www.w3.org/Graphics/SVG/1.1/DTD/svg11.dtd">
<svg version="1.1" id="Calque_1" xmlns="http://www.w3.org/2000/svg" xmlns:xlink="http://www.w3.org/1999/xlink" x="0px" y="0px"
	 width="35px" height="35px" viewBox="0 0 35 35" enable-background="new 0 0 35 35" xml:space="preserve">
<path fill="#FFFFFF" d="M32.647,12.5H23.5V2.393c0-0.735-0.657-0.893-1.393-0.893h-9.099c-0.735,0-1.508,0.157-1.508,0.893V12.5
	H2.467c-0.735,0-1.967-0.301-1.967,0.434v9.098c0,0.735,1.231,0.468,1.967,0.468H11.5v10.075c0,0.733,0.773,1.925,1.508,1.925h9.099
	c0.735,0,1.393-1.191,1.393-1.925V22.5h9.147c0.736,0,1.853,0.268,1.853-0.468v-9.098C34.5,12.199,33.384,12.5,32.647,12.5z"/>
</svg>
