<?xml version="1.0" encoding="utf-8"?>
<!-- Generator: Adobe Illustrator 16.0.0, SVG Export Plug-In . SVG Version: 6.00 Build 0)  -->
<!DOCTYPE svg PUBLIC "-//W3C//DTD SVG 1.1//EN" "http://www.w3.org/Graphics/SVG/1.1/DTD/svg11.dtd">
<svg version="1.1" id="Calque_1" xmlns="http://www.w3.org/2000/svg" xmlns:xlink="http://www.w3.org/1999/xlink" x="0px" y="0px"
	 width="35px" height="35px" viewBox="0 0 35 35" enable-background="new 0 0 35 35" xml:space="preserve">
<path fill="#FFFFFF" d="M32.699,14.5H19.238L14.272,3.663c-0.284-0.618-1.168-0.855-1.974-0.483l-0.122,0.037
	c-0.806,0.372-1.228,1.243-0.944,1.859l4.319,9.424H1.817c-0.68,0-1.229,0.446-1.229,1.125l5.224,15.451
	c0.21,0.689,0.55,1.424,1.229,1.424H17.13h0.206h10.14c0.677,0,1.018-0.774,1.229-1.463l5.224-15.303
	C33.928,15.055,33.376,14.5,32.699,14.5z M10.566,29.945l-0.081,0.009c-0.537,0.056-0.96-0.273-1.062-0.761L6.83,21.499
	c-0.049-0.477,0.347-0.904,0.884-0.959l1.54-0.158c0.538-0.058,1.014,0.285,1.063,0.757l0.803,7.809
	C11.168,29.423,11.097,29.829,10.566,29.945z M18.018,15.331c0.888,0,1.604,0.718,1.604,1.605c0,0.885-0.717,1.604-1.604,1.604
	c-0.885,0-1.605-0.72-1.605-1.604C16.413,16.049,17.132,15.331,18.018,15.331z M18.881,29.244c0,0.412-0.414,1.492-0.932,1.51
	c0.014,0,0.026,0.746,0.04,0.746h-0.08c0.014,0,0.026-0.746,0.04-0.746c-0.518-0.018-0.93-0.725-0.93-1.139l-0.812-8.197
	c0-0.425,0.436-0.918,0.973-0.918h1.538c0.537,0,0.973,0.307,0.973,0.73L18.881,29.244z M28.749,21.479l-2.808,7.697
	c-0.115,0.487-0.546,0.822-1.084,0.782l-0.08-0.007c-0.528-0.104-0.587-0.506-0.525-0.978l1.02-7.767
	c0.063-0.471,0.547-0.818,1.082-0.778l1.536,0.119C28.427,20.591,28.811,21.008,28.749,21.479z"/>
</svg>
