<?xml version="1.0" encoding="utf-8"?>
<!-- Generator: Adobe Illustrator 16.0.0, SVG Export Plug-In . SVG Version: 6.00 Build 0)  -->
<!DOCTYPE svg PUBLIC "-//W3C//DTD SVG 1.1//EN" "http://www.w3.org/Graphics/SVG/1.1/DTD/svg11.dtd">
<svg version="1.1" id="Calque_1" xmlns="http://www.w3.org/2000/svg" xmlns:xlink="http://www.w3.org/1999/xlink" x="0px" y="0px"
	 width="35px" height="35px" viewBox="0 0 35 35" enable-background="new 0 0 35 35" xml:space="preserve">
<path fill="#FCFCFC" d="M20.312,18.646l-0.096-9.348c0.067-1.319,0.457-4.333,2.627-4.635C25.633,4.276,25.184,1,19.215,1H18.3l0,0
	h-0.466h-0.465l0,0h-0.917c-5.972,0-6.426,3.276-3.633,3.663c2.17,0.302,2.556,3.309,2.621,4.626l-0.178,9.492
	c-1.112,1.827-5.873,10.446-5.686,11.081C9.769,30.524,14.421,34,14.421,34h2.482h1.859h2.438c0,0,4.654-3.473,4.848-4.133
	C26.241,29.213,21.235,20.146,20.312,18.646z M14.402,31.017c-1.273,0-2.306-0.934-2.306-2.084c0-1.149,1.033-2.083,2.306-2.083
	s2.308,0.934,2.308,2.083C16.709,30.083,15.675,31.017,14.402,31.017z M15.585,24.571c-0.621,0-1.124-0.446-1.124-0.993
	c0-0.55,0.503-0.995,1.124-0.995c0.622,0,1.125,0.445,1.125,0.995C16.709,24.125,16.207,24.571,15.585,24.571z M16.903,20h-0.859
	l0.223-10h1.103H18.3h1.005l0.222,10h-0.764H16.903z M21.438,28.323c-0.77,0-1.395-0.587-1.395-1.309s0.625-1.305,1.395-1.305
	c0.773,0,1.398,0.583,1.398,1.305S22.212,28.323,21.438,28.323z"/>
</svg>
