<?xml version="1.0" encoding="utf-8"?>
<!-- Generator: Adobe Illustrator 16.0.0, SVG Export Plug-In . SVG Version: 6.00 Build 0)  -->
<!DOCTYPE svg PUBLIC "-//W3C//DTD SVG 1.1//EN" "http://www.w3.org/Graphics/SVG/1.1/DTD/svg11.dtd">
<svg version="1.1" id="Calque_1" xmlns="http://www.w3.org/2000/svg" xmlns:xlink="http://www.w3.org/1999/xlink" x="0px" y="0px"
	 width="35px" height="35px" viewBox="0 0 35 35" enable-background="new 0 0 35 35" xml:space="preserve">
<path fill="#FCFCFC" d="M30.398,25.01c-0.106-4.422-3.257-6.943-9.893-7.209c-6.63-0.267-6.462-3.771-5.298-4.794
	c1.939-1.707,6.308-3.922,6.335-1.897c0.025,2.024,0.479,2.21,2.077,3.223c1.599,1.012,3.33,1.437,3.809,1.437
	c0,0,1.865-2.29,2.132-3.568c0.215-1.034-2.074-3.946-4.536-6.122c-0.174-0.721-1.103-4.258-3.008-5.723
	c0,0,0.586,2.508,0.559,3.976c-3.123-1.102-10.455,4.19-11.764,6.436c-1.411,2.424-2.45,6.525,2.851,9.242
	c5.301,2.718,8.498,0.88,8.924,6.847S12.238,28.152,9.72,25.712c-2.919-2.829-3.729-7.433-3.49-10.416
	c0.24-2.983,3.383-8.615,5.008-9.715c0,0,0.506,1.271,0.426,1.91c0,0,2.558-2.783,6.856-4.096c0,0-3.713-1.818-9.013-0.246
	c0,0,1.039,0.879,1.198,1.385c0,0-5.247,4.636-6.447,10.788c-1.198,6.153,0.257,12.32,2.79,14.424
	c2.318,1.926,6.986,4.993,14.178,5.073C28.42,34.9,30.505,29.431,30.398,25.01z M24.66,9.617c-0.588,0.319-1.412-0.054-1.358-0.267
	c0.052-0.213-0.721-1.625-0.721-1.625s-0.505-0.399,1.013-0.133C25.112,7.858,24.66,9.617,24.66,9.617z"/>
</svg>
