<?xml version="1.0" encoding="utf-8"?>
<!-- Generator: Adobe Illustrator 16.0.0, SVG Export Plug-In . SVG Version: 6.00 Build 0)  -->
<!DOCTYPE svg PUBLIC "-//W3C//DTD SVG 1.1//EN" "http://www.w3.org/Graphics/SVG/1.1/DTD/svg11.dtd">
<svg version="1.1" id="Calque_1" xmlns="http://www.w3.org/2000/svg" xmlns:xlink="http://www.w3.org/1999/xlink" x="0px" y="0px"
	 width="35px" height="35px" viewBox="0 0 35 35" enable-background="new 0 0 35 35" xml:space="preserve">
<path fill="#FFFFFF" d="M31.27,26.576l-5.305-8.893c1.525-1.866,2.44-4.25,2.44-6.849C28.405,4.851,23.555,0,17.571,0
	S6.736,4.851,6.736,10.834c0,2.552,0.884,4.895,2.36,6.747l-5.365,8.995l-2.659,4.459l5.96-2.488l0.077,0.045l0.505,6.345
	l2.659-4.457l5.359-8.986c0.629,0.114,1.276,0.176,1.938,0.176c0.617,0,1.221-0.055,1.81-0.153l5.345,8.964l2.659,4.457l0.506-6.345
	l0.076-0.045l5.961,2.488L31.27,26.576z M21.92,16.831L17.488,14.5l-4.433,2.331l0.847-4.936l-3.586-3.496l4.956-0.72l2.216-4.491
	l2.216,4.491l4.955,0.72l-3.586,3.496L21.92,16.831z"/>
</svg>
