<?xml version="1.0" encoding="utf-8"?>
<!-- Generator: Adobe Illustrator 16.0.0, SVG Export Plug-In . SVG Version: 6.00 Build 0)  -->
<!DOCTYPE svg PUBLIC "-//W3C//DTD SVG 1.1//EN" "http://www.w3.org/Graphics/SVG/1.1/DTD/svg11.dtd">
<svg version="1.1" id="Calque_1" focusable="false" xmlns="http://www.w3.org/2000/svg" xmlns:xlink="http://www.w3.org/1999/xlink"
	 x="0px" y="0px" width="200px" height="50px" viewBox="0 0 200 50" enable-background="new 0 0 200 50" xml:space="preserve">
<path fill="#FFFFFF" d="M114.063,5.283c6.152,4.395,10.156,11.582,10.156,19.717c0,13.359-10.82,24.189-24.17,24.219
	c-13.33,0.029-24.248-10.84-24.268-24.18c-0.01-8.135,3.994-15.342,10.137-19.746c1.143-0.811,2.734-0.469,3.418,0.752l1.543,2.744
	c0.576,1.025,0.303,2.324-0.645,3.027c-4.053,3.008-6.641,7.773-6.641,13.174c-0.01,9.014,7.275,16.416,16.406,16.416
	c8.945,0,16.465-7.246,16.406-16.514c-0.029-5.059-2.412-9.941-6.65-13.086c-0.947-0.703-1.211-2.002-0.635-3.018l1.543-2.744
	C111.348,4.834,112.93,4.473,114.063,5.283z M103.906,25.781V2.344c0-1.299-1.045-2.344-2.344-2.344h-3.125
	c-1.299,0-2.344,1.045-2.344,2.344v23.438c0,1.299,1.045,2.344,2.344,2.344h3.125C102.861,28.125,103.906,27.08,103.906,25.781z"/>
</svg>
