<?xml version="1.0" encoding="utf-8"?>
<!-- Generator: Adobe Illustrator 16.0.0, SVG Export Plug-In . SVG Version: 6.00 Build 0)  -->
<!DOCTYPE svg PUBLIC "-//W3C//DTD SVG 1.1//EN" "http://www.w3.org/Graphics/SVG/1.1/DTD/svg11.dtd">
<svg version="1.1" id="Calque_1" focusable="false" xmlns="http://www.w3.org/2000/svg" xmlns:xlink="http://www.w3.org/1999/xlink"
	 x="0px" y="0px" width="200px" height="50px" viewBox="0 0 200 50" enable-background="new 0 0 200 50" xml:space="preserve">
<path fill="#FFFFFF" d="M124.316,43.232l-9.736-9.736c-0.439-0.439-1.035-0.684-1.66-0.684h-1.592
	c2.695-3.447,4.297-7.783,4.297-12.5C115.625,9.092,106.533,0,95.313,0S75,9.092,75,20.313s9.092,20.313,20.313,20.313
	c4.717,0,9.053-1.602,12.5-4.297v1.592c0,0.625,0.244,1.221,0.684,1.66l9.736,9.736c0.918,0.918,2.402,0.918,3.311,0l2.764-2.764
	C125.225,45.635,125.225,44.15,124.316,43.232z M95.313,32.813c-6.904,0-12.5-5.586-12.5-12.5c0-6.904,5.586-12.5,12.5-12.5
	c6.904,0,12.5,5.586,12.5,12.5C107.813,27.217,102.227,32.813,95.313,32.813z"/>
</svg>
